# File created by Blade
# Date/Time:  Thu Jan 22 19:13:21 2015
#---------------------------------------------------------
:version 1.10
:name HOM
:units
  mass 1.0
  length 1.000000
  angle deg
:documentation
     Acclaim Skeleton File
:root
   axis xyz
   order TX TY TZ RX RY RZ
   position 0.000000 0.000000 0.000000
   orientation 0 0 0
:bonedata
   begin
      id 1
      name RightUpLeg_dum
      direction -1.000000 0.000000 0.000000
      length 4.478084
      axis 0.0 0.0 0.0 xyz
   end
   begin
      id 2
      name LeftUpLeg_dum
      direction 1.000000 0.000000 0.000000
      length 4.478084
      axis 0.0 0.0 0.0 xyz
   end
   begin
      id 3
      name Spine_dum
      direction 0.000000 1.000000 0.000000
      length 6.068208
      axis 0.0 0.0 0.0 xyz
   end
   begin
      id 4
      name RightUpLeg
      direction 0.000000 -1.000000 0.000000
      length 16.405774
      axis 0.0 0.0 0.0 xyz
      dof rx ry rz
   end
   begin
      id 5
      name RightLeg
      direction 0.000000 -1.000000 0.000000
      length 14.644143
      axis 0.0 0.0 0.0 xyz
      dof rx ry rz
   end
   begin
      id 6
      name RightFoot
      direction 0.000000 -0.258819 0.965926
      length 5.806150
      axis 15.0 0.0 0.0 xyz
      dof rx ry rz
   end
   begin
      id 7
      name RightToeBase
      direction 0.000000 0.000000 1.000000
      length 2.952750
      axis 0.0 0.0 0.0 xyz
      dof rx ry rz
   end
   begin
      id 8
      name LeftUpLeg
      direction 0.000000 -1.000000 0.000000
      length 16.405774
      axis 0.0 0.0 0.0 xyz
      dof rx ry rz
   end
   begin
      id 9
      name LeftLeg
      direction 0.000000 -1.000000 0.000000
      length 14.644143
      axis 0.0 0.0 0.0 xyz
      dof rx ry rz
   end
   begin
      id 10
      name LeftFoot
      direction 0.000000 -0.258819 0.965926
      length 5.806150
      axis 15.0 0.0 0.0 xyz
      dof rx ry rz
   end
   begin
      id 11
      name LeftToeBase
      direction 0.000000 0.000000 1.000000
      length 2.952750
      axis 0.0 0.0 0.0 xyz
      dof rx ry rz
   end
   begin
      id 12
      name Spine
      direction 0.000000 1.000000 0.000000
      length 0.000000
      axis 0.0 0.0 0.0 xyz
      dof rx ry rz
   end
   begin
      id 13
      name Spine_dum1
      direction 0.000000 1.000000 0.000000
      length 10.013923
      axis 0.0 0.0 0.0 xyz
   end
   begin
      id 14
      name Spine_dum2
      direction 0.000000 1.000000 0.000000
      length 10.013923
      axis 0.0 0.0 0.0 xyz
   end
   begin
      id 15
      name Spine_dum3
      direction 0.000000 1.000000 0.000000
      length 15.777476
      axis 0.0 0.0 0.0 xyz
   end
   begin
      id 16
      name RightShoulder
      direction -1.000000 0.000000 0.000000
      length 7.190220
      axis 0.0 0.0 90.0 xyz
      dof rx ry rz
   end
   begin
      id 17
      name RightArm
      direction -1.000000 0.000000 0.000000
      length 10.177469
      axis 0.0 0.0 90.0 xyz
      dof rx ry rz
   end
   begin
      id 18
      name RightForeArm
      direction -1.000000 0.000000 0.000000
      length 8.392114
      axis 0.0 0.0 90.0 xyz
      dof ry rz rx
   end
   begin
      id 19
      name RightHand
      direction -1.000000 0.000000 0.000000
      length 0.000000
      axis 0.0 0.0 90.0 xyz
      dof rx ry rz
   end
   begin
      id 20
      name RightHand_dum1
      direction -1.000000 0.000000 0.000000
      length 3.937000
      axis 0.0 0.0 90.0 xyz
   end
   begin
      id 21
      name RightHand_dum2
      direction 0.000000 0.000000 0.000000
      length 0.000000
      axis 0.0 0.0 90.0 xyz
   end
   begin
      id 22
      name RightHandThumb1
      direction 0.000000 0.000000 1.000000
      length 3.937000
      axis 0.0 0.0 90.0 xyz
      dof rx rz ry
   end
   begin
      id 23
      name LeftShoulder
      direction 1.000000 0.000000 0.000000
      length 7.190220
      axis 0.0 0.0 -90.0 xyz
      dof rx ry rz
   end
   begin
      id 24
      name LeftArm
      direction 1.000000 0.000000 0.000000
      length 10.177469
      axis 0.0 0.0 -90.0 xyz
      dof rx ry rz
   end
   begin
      id 25
      name LeftForeArm
      direction 1.000000 0.000000 0.000000
      length 8.392114
      axis 0.0 0.0 -90.0 xyz
      dof ry rz rx
   end
   begin
      id 26
      name LeftHand
      direction 1.000000 0.000000 0.000000
      length 0.000000
      axis 0.0 0.0 -90.0 xyz
      dof rx ry rz
   end
   begin
      id 27
      name LeftHand_dum1
      direction 1.000000 0.000000 0.000000
      length 3.937000
      axis 0.0 0.0 -90.0 xyz
   end
   begin
      id 28
      name LeftHand_dum2
      direction 0.000000 0.000000 0.000000
      length 0.000000
      axis 0.0 0.0 -90.0 xyz
   end
   begin
      id 29
      name LeftHandThumb1
      direction 0.000000 0.000000 1.000000
      length 3.937000
      axis 0.0 0.0 -90.0 xyz
      dof rx rz ry
   end
   begin
      id 30
      name Head
      direction 0.000000 1.000000 0.000000
      length 4.527550
      axis 0.0 0.0 0.0 xyz
      dof rx ry rz
   end
:hierarchy
   begin
      root RightUpLeg_dum LeftUpLeg_dum Spine_dum
      RightUpLeg_dum RightUpLeg
      LeftUpLeg_dum LeftUpLeg
      Spine_dum Spine
      RightUpLeg RightLeg
      RightLeg RightFoot
      RightFoot RightToeBase
      LeftUpLeg LeftLeg
      LeftLeg LeftFoot
      LeftFoot LeftToeBase
      Spine Spine_dum1 Spine_dum2 Spine_dum3
      Spine_dum1 RightShoulder
      Spine_dum2 LeftShoulder
      Spine_dum3 Head
      RightShoulder RightArm
      RightArm RightForeArm
      RightForeArm RightHand
      RightHand RightHand_dum1 RightHand_dum2
      RightHand_dum2 RightHandThumb1
      LeftShoulder LeftArm
      LeftArm LeftForeArm
      LeftForeArm LeftHand
      LeftHand LeftHand_dum1 LeftHand_dum2
      LeftHand_dum2 LeftHandThumb1
   end

# File created by Blade
# Date/Time:  Thu Jan 22 19:13:14 2015
# Frame Rate: 120.000 fps
#------------------------------------------------------
:FULLY-SPECIFIED
:DEGREES
459
root 6.746754 30.821051 -3.214022 19.389637 -17.357719 25.871773
RightUpLeg -38.851606 -49.999724 -19.643976
RightLeg -7.502789 -0.000000 0.000000
RightFoot 9.242870 -10.309316 8.900393
RightToeBase 10.217695 -0.000000 -0.000000
LeftUpLeg -20.297990 9.405895 -11.065335
LeftLeg 1.975596 -0.000000 -0.000000
LeftFoot -4.410352 7.218403 -29.200711
LeftToeBase 8.667469 -0.000000 -0.000000
Spine 6.293189 13.056903 40.067687
RightShoulder -12.407121 -4.942657 -21.857262
RightArm 21.056518 42.418990 55.419716
RightForeArm 21.645355 -0.000000 19.897415
RightHand 17.277522 -0.000000 9.331329
RightHandThumb1 -24.326973 -0.000000 -32.862282
LeftShoulder -24.190259 5.691262 38.687997
LeftArm 4.429094 -30.766356 -12.309959
LeftForeArm 7.310418 -0.000000 6.249652
LeftHand -2.005437 -0.000000 -1.677410
LeftHandThumb1 -26.253704 0.000000 33.147579
Head -13.307190 -1.438154 2.919903
460
root 6.765998 30.817048 -3.236664 19.471279 -17.606461 26.037971
RightUpLeg -39.254111 -49.840483 -19.681327
RightLeg -7.393829 -0.000000 0.000000
RightFoot 9.212319 -10.294456 8.994552
RightToeBase 10.342058 -0.000000 -0.000000
LeftUpLeg -20.510106 9.441241 -11.281382
LeftLeg 2.085186 -0.000000 -0.000000
LeftFoot -4.481056 7.209273 -29.101965
LeftToeBase 8.517659 -0.000000 -0.000000
Spine 6.479137 13.231570 40.201864
RightShoulder -12.350968 -4.714792 -21.824371
RightArm 20.794147 42.457955 55.137670
RightForeArm 21.819452 -0.000000 19.865825
RightHand 17.263298 0.000000 9.330151
RightHandThumb1 -24.326973 -0.000000 -32.862282
LeftShoulder -24.281132 5.748673 38.785529
LeftArm 4.177995 -30.908479 -12.096909
LeftForeArm 6.932762 0.000000 6.343687
LeftHand -1.977066 -0.000000 -1.733576
LeftHandThumb1 -26.253704 0.000000 33.147579
Head -13.621957 -1.066776 3.363790
461
root 6.783605 30.812873 -3.259999 19.556769 -17.831814 26.183538
RightUpLeg -39.659693 -49.732680 -19.657471
RightLeg -7.319779 -0.000000 0.000000
RightFoot 9.229625 -10.225558 9.120292
RightToeBase 10.313122 -0.000000 -0.000000
LeftUpLeg -20.721183 9.508946 -11.497934
LeftLeg 2.172313 -0.000000 -0.000000
LeftFoot -4.538155 7.202710 -29.052083
LeftToeBase 8.348410 -0.000000 -0.000000
Spine 6.670219 13.439035 40.368130
RightShoulder -12.391756 -4.615871 -21.763826
RightArm 20.780958 42.643426 55.058871
RightForeArm 21.829759 0.000000 19.838195
RightHand 17.226621 -0.000000 9.012732
RightHandThumb1 -24.326973 -0.000000 -32.862282
LeftShoulder -24.345648 5.707113 38.880484
LeftArm 3.898540 -31.008515 -11.871704
LeftForeArm 6.680155 -0.000000 6.444913
LeftHand -1.935449 -0.000000 -1.793634
LeftHandThumb1 -26.253704 0.000000 33.147579
Head -13.970157 -0.800253 3.775561
462
root 6.805818 30.806750 -3.285583 19.670632 -18.096205 26.388561
RightUpLeg -40.119757 -49.579614 -19.711971
RightLeg -7.213980 -0.000000 0.000000
RightFoot 9.197979 -10.219548 9.346698
RightToeBase 10.277735 -0.000000 -0.000000
LeftUpLeg -20.970096 9.534002 -11.784727
LeftLeg 2.248086 -0.000000 -0.000000
LeftFoot -4.677639 7.268671 -29.036098
LeftToeBase 8.372003 -0.000000 -0.000000
Spine 6.801365 13.688498 40.412845
RightShoulder -12.398747 -4.501272 -21.665286
RightArm 20.668931 42.724304 54.835223
RightForeArm 21.974265 -0.000000 19.745817
RightHand 17.256366 -0.000000 9.165075
RightHandThumb1 -24.326973 -0.000000 -32.862282
LeftShoulder -24.318071 5.570797 39.127890
LeftArm 3.477145 -31.086606 -11.652379
LeftForeArm 6.348125 -0.000000 6.536461
LeftHand -1.928051 -0.000000 -1.777285
LeftHandThumb1 -26.253704 0.000000 33.147579
Head -14.238627 -0.491162 4.247832
463
root 6.826600 30.799837 -3.308594 19.792658 -18.339167 26.580915
RightUpLeg -40.498360 -49.392372 -19.828252
RightLeg -7.129003 -0.000000 0.000000
RightFoot 9.139308 -10.286529 9.498860
RightToeBase 10.379678 -0.000000 -0.000000
LeftUpLeg -21.214974 9.567036 -12.059459
LeftLeg 2.304982 -0.000000 -0.000000
LeftFoot -4.758852 7.317855 -28.887300
LeftToeBase 8.173137 -0.000000 -0.000000
Spine 6.901339 13.919729 40.470343
RightShoulder -12.376761 -4.492577 -21.577721
RightArm 20.639797 42.903313 54.735780
RightForeArm 22.132190 0.000000 19.712819
RightHand 17.282927 -0.000000 9.051937
RightHandThumb1 -24.326973 -0.000000 -32.862282
LeftShoulder -24.431060 5.744693 39.164481
LeftArm 3.340158 -31.502337 -11.495561
LeftForeArm 6.167628 -0.000000 6.569777
LeftHand -1.953193 -0.000000 -1.877791
LeftHandThumb1 -26.253704 0.000000 33.147579
Head -14.450928 -0.375867 4.720046
464
root 6.840975 30.793345 -3.332173 19.904985 -18.528847 26.705218
RightUpLeg -40.834816 -49.259327 -19.830442
RightLeg -7.102256 -0.000000 0.000000
RightFoot 9.119409 -10.328444 9.604045
RightToeBase 10.429793 -0.000000 -0.000000
LeftUpLeg -21.430441 9.539817 -12.226729
LeftLeg 2.377681 -0.000000 -0.000000
LeftFoot -4.904452 7.378644 -28.798696
LeftToeBase 8.108757 -0.000000 -0.000000
Spine 7.030949 14.062999 40.622892
RightShoulder -12.343856 -4.233358 -21.591245
RightArm 20.410461 42.978260 54.534950
RightForeArm 22.256022 -0.000000 19.653303
RightHand 17.261497 -0.000000 8.912893
RightHandThumb1 -24.326973 -0.000000 -32.862282
LeftShoulder -24.503898 5.703478 39.297690
LeftArm 2.992832 -31.561240 -11.264896
LeftForeArm 5.688879 -0.000000 6.628644
LeftHand -1.999135 0.000000 -1.959840
LeftHandThumb1 -26.253704 0.000000 33.147579
Head -14.719875 -0.032941 5.152074
465
root 6.859404 30.787656 -3.360442 20.029060 -18.761691 26.885224
RightUpLeg -41.305831 -49.122481 -19.824104
RightLeg -7.007366 -0.000000 0.000000
RightFoot 9.112558 -10.378207 9.652827
RightToeBase 10.356286 -0.000000 -0.000000
LeftUpLeg -21.696968 9.597168 -12.493050
LeftLeg 2.461063 -0.000000 -0.000000
LeftFoot -4.976044 7.393338 -28.633652
LeftToeBase 8.015024 -0.000000 -0.000000
Spine 7.158860 14.261349 40.685803
RightShoulder -12.358870 -4.215292 -21.515004
RightArm 20.541605 43.269441 54.594756
RightForeArm 22.283601 -0.000000 19.587620
RightHand 17.352798 -0.000000 8.954214
RightHandThumb1 -24.326973 -0.000000 -32.862282
LeftShoulder -24.573044 5.727099 39.418830
LeftArm 2.659165 -31.855049 -11.080414
LeftForeArm 5.461697 -0.000000 6.695490
LeftHand -2.040299 -0.000000 -2.021301
LeftHandThumb1 -26.253704 0.000000 33.147579
Head -14.986128 0.302839 5.579432
466
root 6.881973 30.780842 -3.384766 20.085036 -18.998624 27.141278
RightUpLeg -41.698933 -48.968065 -20.000154
RightLeg -6.848498 -0.000000 0.000000
RightFoot 9.053300 -10.425134 9.578039
RightToeBase 10.392859 -0.000000 -0.000000
LeftUpLeg -21.888646 9.592382 -12.809603
LeftLeg 2.498644 -0.000000 -0.000000
LeftFoot -5.034804 7.476347 -28.519088
LeftToeBase 7.953987 -0.000000 -0.000000
Spine 7.327077 14.433839 40.654811
RightShoulder -12.369772 -4.036365 -21.449884
RightArm 20.387885 43.331617 54.387398
RightForeArm 22.446606 -0.000000 19.492249
RightHand 17.343563 -0.000000 8.780073
RightHandThumb1 -24.326973 -0.000000 -32.862282
LeftShoulder -24.681800 5.783458 39.502286
LeftArm 2.389568 -32.073465 -10.868331
LeftForeArm 5.089477 -0.000000 6.683500
LeftHand -1.996736 -0.000000 -2.044131
LeftHandThumb1 -26.253704 0.000000 33.147579
Head -15.317083 0.626904 6.054535
467
root 6.904765 30.776423 -3.415056 20.196806 -19.256601 27.395507
RightUpLeg -42.255221 -48.820065 -20.075995
RightLeg -6.615655 -0.000000 0.000000
RightFoot 8.982240 -10.484980 9.623457
RightToeBase 10.384178 -0.000000 -0.000000
LeftUpLeg -22.156665 9.583626 -13.139162
LeftLeg 2.553638 -0.000000 -0.000000
LeftFoot -5.073056 7.575936 -28.360312
LeftToeBase 7.801479 -0.000000 -0.000000
Spine 7.447109 14.648831 40.604604
RightShoulder -12.308333 -3.742135 -21.472534
RightArm 20.029493 43.465581 54.176919
RightForeArm 22.591401 -0.000000 19.502905
RightHand 17.229242 -0.000000 8.691520
RightHandThumb1 -24.326973 -0.000000 -32.862282
LeftShoulder -24.734216 5.739707 39.686257
LeftArm 2.006919 -32.201872 -10.674491
LeftForeArm 4.865695 -0.000000 6.730605
LeftHand -2.089430 0.000000 -2.173033
LeftHandThumb1 -26.253704 0.000000 33.147579
Head -15.591416 0.998913 6.522854
468
root 6.924960 30.771494 -3.444410 20.297948 -19.488295 27.631591
RightUpLeg -42.761305 -48.696038 -20.139734
RightLeg -6.426165 -0.000000 0.000000
RightFoot 8.931219 -10.529096 9.588465
RightToeBase 10.363714 -0.000000 -0.000000
LeftUpLeg -22.404514 9.559438 -13.435281
LeftLeg 2.600725 -0.000000 -0.000000
LeftFoot -5.117350 7.675967 -28.256898
LeftToeBase 7.715265 -0.000000 -0.000000
Spine 7.596418 14.833758 40.581503
RightShoulder -12.335229 -3.532799 -21.456090
RightArm 19.922190 43.659405 54.124507
RightForeArm 22.538922 -0.000000 19.521304
RightHand 17.165843 0.000000 8.333153
RightHandThumb1 -24.326973 -0.000000 -32.862282
LeftShoulder -24.831550 5.793490 39.783684
LeftArm 1.672503 -32.469279 -10.486862
LeftForeArm 4.509545 -0.000000 6.734684
LeftHand -2.063411 -0.000000 -2.211768
LeftHandThumb1 -26.253704 0.000000 33.147579
Head -15.915741 1.263330 6.967778
469
root 6.949585 30.767320 -3.470027 20.372709 -19.733191 27.926081
RightUpLeg -43.277782 -48.586734 -20.278309
RightLeg -6.190238 -0.000000 0.000000
RightFoot 8.863999 -10.554811 9.495859
RightToeBase 10.444309 -0.000000 -0.000000
LeftUpLeg -22.627829 9.568133 -13.808967
LeftLeg 2.613914 -0.000000 -0.000000
LeftFoot -5.108002 7.762507 -28.107852
LeftToeBase 7.693112 -0.000000 -0.000000
Spine 7.730791 14.991762 40.497282
RightShoulder -12.314924 -3.343035 -21.448670
RightArm 19.860797 43.973457 54.159054
RightForeArm 22.517624 -0.000000 19.529694
RightHand 17.191063 -0.000000 8.176919
RightHandThumb1 -24.326973 -0.000000 -32.862282
LeftShoulder -24.901385 5.740839 39.911012
LeftArm 1.262706 -32.596921 -10.233123
LeftForeArm 4.160999 -0.000000 6.744021
LeftHand -2.047413 -0.000000 -2.222874
LeftHandThumb1 -26.253704 0.000000 33.147579
Head -16.229200 1.607613 7.374623
470
root 6.970776 30.763964 -3.497914 20.454088 -19.978279 28.189157
RightUpLeg -43.851236 -48.496418 -20.317033
RightLeg -5.938886 -0.000000 0.000000
RightFoot 8.802214 -10.537774 9.428980
RightToeBase 10.481861 -0.000000 -0.000000
LeftUpLeg -22.855365 9.569553 -14.139231
LeftLeg 2.636096 -0.000000 -0.000000
LeftFoot -5.111676 7.855330 -27.971039
LeftToeBase 7.617281 -0.000000 -0.000000
Spine 7.894029 15.185545 40.452574
RightShoulder -12.325266 -3.193444 -21.414580
RightArm 19.746976 44.130829 54.028035
RightForeArm 22.732317 -0.000000 19.527635
RightHand 17.166553 -0.000000 8.249709
RightHandThumb1 -24.326973 -0.000000 -32.862282
LeftShoulder -25.001304 5.846908 39.932359
LeftArm 0.934644 -32.877266 -10.015729
LeftForeArm 3.809977 -0.000000 6.765379
LeftHand -2.010461 -0.000000 -2.176250
LeftHandThumb1 -26.253704 0.000000 33.147579
Head -16.541835 1.931195 7.767351
